Coordinates
version=1
nRows=31
nColumns=38
inDegrees=no

Units are S.I. units (second, meters, Newtons, ...)
If the header above contains a line with 'inDegrees', this indicates whether rotational values are in degrees (yes) or radians (no).

endheader
time	pelvis_tilt	pelvis_list	pelvis_rotation	pelvis_tx	pelvis_ty	pelvis_tz	hip_flexion_r	hip_adduction_r	hip_rotation_r	knee_angle_r	ankle_angle_r	subtalar_angle_r	mtp_angle_r	hip_flexion_l	hip_adduction_l	hip_rotation_l	knee_angle_l	ankle_angle_l	subtalar_angle_l	mtp_angle_l	lumbar_extension	lumbar_bending	lumbar_rotation	arm_flex_r	arm_add_r	arm_rot_r	elbow_flex_r	pro_sup_r	wrist_flex_r	wrist_dev_r	arm_flex_l	arm_add_l	arm_rot_l	elbow_flex_l	pro_sup_l	wrist_flex_l	wrist_dev_l
0	1.27895	1.47741	0.586431	0.610607	0.565584	0.997266	0.480511	0.00580828	-0.137543	0.245209	-0.358272	0	0	-0.119786	-0.218815	-0.230908	0.64649	-0.123911	0	0	-0.0950645	0.171348	-0.0841482	-0.285711	-0.284148	0.206329	0.499897	1.14527	0	0	0.482219	-0.494642	0.995057	0.6346	1.37232	0	0
0.01	1.24548	1.47146	0.616979	0.611219	0.578292	0.997324	0.50021	0.00715102	-0.152911	0.297474	-0.343034	0	0	-0.108199	-0.224023	-0.215936	0.676383	-0.139073	0	0	-0.0896802	0.179646	-0.0791897	-0.288829	-0.289469	0.213153	0.504215	1.12686	0	0	0.464315	-0.492747	0.990613	0.630776	1.3678	0	0
0.02	1.25719	1.46786	0.600473	0.611857	0.591825	0.997942	0.51043	0.00982967	-0.170655	0.341468	-0.326202	0	0	-0.101816	-0.230791	-0.207626	0.706927	-0.159262	0	0	-0.0884701	0.188029	-0.0717266	-0.29154	-0.295841	0.227645	0.506334	1.10134	0	0	0.446676	-0.491308	0.992968	0.626701	1.35703	0	0
0.03	1.28209	1.46607	0.569361	0.612685	0.605509	0.998868	0.51446	0.0133132	-0.185784	0.377045	-0.326987	0	0	-0.0955453	-0.237103	-0.200682	0.740237	-0.182378	0	0	-0.0908642	0.196168	-0.064145	-0.296421	-0.295848	0.211996	0.50981	1.1161	0	0	0.423555	-0.489918	0.978882	0.624157	1.36357	0	0
0.04	1.28749	1.46528	0.556617	0.613791	0.619134	0.99968	0.519209	0.0156236	-0.201189	0.414399	-0.312557	0	0	-0.0844453	-0.241924	-0.193997	0.777456	-0.212654	0	0	-0.0918578	0.201502	-0.0562225	-0.301107	-0.295324	0.197695	0.513273	1.12915	0	0	0.399932	-0.489982	0.967575	0.622639	1.3628	0	0
0.05	1.29315	1.46514	0.543316	0.615203	0.632589	1.00057	0.519599	0.0189071	-0.214611	0.44381	-0.294303	0	0	-0.0705625	-0.246091	-0.184783	0.816445	-0.242955	0	0	-0.0933365	0.205191	-0.0479657	-0.304239	-0.294594	0.188507	0.515328	1.1361	0	0	0.377639	-0.491115	0.961185	0.621059	1.3573	0	0
0.06	1.29815	1.46508	0.531173	0.616716	0.645787	1.00149	0.516544	0.0225488	-0.2274	0.465636	-0.273929	0	0	-0.0534582	-0.250065	-0.17401	0.85646	-0.274659	0	0	-0.0949772	0.208123	-0.0399522	-0.306718	-0.293778	0.181073	0.517285	1.14028	0	0	0.356631	-0.492634	0.958332	0.619452	1.34717	0	0
0.07	1.30874	1.46458	0.514332	0.618161	0.658694	1.0025	0.508985	0.0273479	-0.238578	0.478255	-0.257983	0	0	-0.0344469	-0.25383	-0.160411	0.896074	-0.300038	0	0	-0.0974884	0.211535	-0.0322679	-0.30826	-0.293483	0.1761	0.518973	1.14166	0	0	0.336923	-0.493682	0.957646	0.617136	1.33677	0	0
0.08	1.31876	1.4638	0.498875	0.619461	0.671328	1.00347	0.499106	0.032162	-0.249205	0.487192	-0.215082	0	0	-0.0138731	-0.256549	-0.143989	0.934965	-0.312754	0	0	-0.0986098	0.213673	-0.0249977	-0.303377	-0.306073	0.23122	0.517966	1.0639	0	0	0.323924	-0.498453	0.985337	0.617462	1.28349	0	0
0.09	1.33334	1.46291	0.478847	0.620642	0.683744	1.00467	0.484073	0.0386043	-0.255341	0.484273	-0.216981	0	0	0.00629894	-0.258667	-0.128173	0.97182	-0.313708	0	0	-0.101898	0.217552	-0.0162429	-0.304035	-0.304955	0.223867	0.5172	1.07186	0	0	0.306313	-0.495468	0.982809	0.610292	1.28656	0	0
0.1	1.34852	1.46281	0.458313	0.621675	0.695935	1.00595	0.467584	0.0441023	-0.260679	0.480211	-0.213806	0	0	0.0269887	-0.259766	-0.115515	1.01044	-0.304254	0	0	-0.105796	0.220622	-0.00927476	-0.303747	-0.304636	0.217683	0.517371	1.07825	0	0	0.287807	-0.492886	0.979698	0.603593	1.28497	0	0
0.11	1.36754	1.4645	0.432772	0.622679	0.707933	1.00746	0.449659	0.0486538	-0.263061	0.475762	-0.207142	0	0	0.047042	-0.25923	-0.108168	1.04995	-0.287194	0	0	-0.110972	0.221659	-0.00225937	-0.302056	-0.304412	0.212826	0.516882	1.08372	0	0	0.26976	-0.490235	0.978455	0.595871	1.28245	0	0
0.12	1.39003	1.46759	0.402004	0.623797	0.719783	1.00922	0.429814	0.0542399	-0.258502	0.468268	-0.171123	0	0	0.0662561	-0.257982	-0.106516	1.08964	-0.248413	0	0	-0.116671	0.220223	0.00627077	-0.295973	-0.309401	0.236344	0.513187	1.05547	0	0	0.25464	-0.48801	0.987775	0.586486	1.27242	0	0
0.13	1.4171	1.47324	0.365209	0.62503	0.731483	1.01127	0.410826	0.0577232	-0.252523	0.465051	-0.156845	0	0	0.0837769	-0.254832	-0.108921	1.12327	-0.236582	0	0	-0.12601	0.216273	0.0113381	-0.288399	-0.311616	0.244565	0.511727	1.04574	0	0	0.232596	-0.487859	0.977991	0.581983	1.27105	0	0
0.14	1.44569	1.47904	0.325923	0.626377	0.743157	1.01352	0.390295	0.0625796	-0.242052	0.457154	-0.162272	0	0	0.10121	-0.25219	-0.113307	1.15169	-0.231996	0	0	-0.133529	0.211816	0.02312	-0.283917	-0.309637	0.241925	0.50586	1.05247	0	0	0.220777	-0.481529	0.987298	0.565068	1.28043	0	0
0.15	1.4843	1.48433	0.276174	0.62775	0.754753	1.0158	0.36831	0.0687419	-0.22898	0.446521	-0.163243	0	0	0.118002	-0.250835	-0.118643	1.17514	-0.22372	0	0	-0.14139	0.207754	0.0342604	-0.279249	-0.308155	0.239558	0.500952	1.05707	0	0	0.208052	-0.475242	0.995137	0.548656	1.2872	0	0
0.16	1.5231	1.4885	0.22662	0.629066	0.766225	1.01796	0.345839	0.0757317	-0.215197	0.433314	-0.162143	0	0	0.135725	-0.25055	-0.123027	1.19378	-0.214722	0	0	-0.148822	0.204609	0.0441967	-0.274655	-0.307449	0.238011	0.497365	1.0604	0	0	0.194737	-0.469009	1.00197	0.532901	1.29303	0	0
0.17	1.56156	1.49157	0.178462	0.630233	0.777554	1.01999	0.32229	0.0829038	-0.202261	0.416866	-0.160291	0	0	0.154605	-0.250939	-0.125556	1.20794	-0.206437	0	0	-0.155464	0.202455	0.0527445	-0.270634	-0.307402	0.237021	0.495136	1.06268	0	0	0.181199	-0.462374	1.00815	0.517282	1.29805	0	0
0.18	1.60123	1.49376	0.130097	0.631233	0.788726	1.02192	0.296677	0.0901093	-0.189982	0.395688	-0.158734	0	0	0.174191	-0.251685	-0.126699	1.21787	-0.199194	0	0	-0.161715	0.201177	0.0598125	-0.267105	-0.30804	0.236143	0.494397	1.06419	0	0	0.16739	-0.455208	1.01286	0.501708	1.30118	0	0
0.19	1.65181	1.4947	0.0708926	0.632168	0.799866	1.02393	0.265574	0.0989881	-0.173459	0.363573	-0.139182	0	0	0.192536	-0.254138	-0.12962	1.2233	-0.189167	0	0	-0.169934	0.201099	0.0603999	-0.257738	-0.315238	0.261032	0.495005	1.04115	0	0	0.142511	-0.447374	0.981103	0.489332	1.32349	0	0
0.2	1.67541	1.49653	0.0386926	0.633031	0.810747	1.02555	0.241469	0.103538	-0.165515	0.34315	-0.148282	0	0	0.213448	-0.254915	-0.133144	1.22584	-0.185808	0	0	-0.175051	0.199474	0.0680861	-0.255758	-0.316131	0.258482	0.49637	1.04445	0	0	0.130569	-0.439853	0.988946	0.474067	1.32179	0	0
0.21	1.70936	1.49768	-0.00367364	0.633835	0.821499	1.02717	0.213507	0.108795	-0.154544	0.314591	-0.156744	0	0	0.233222	-0.256764	-0.138642	1.22533	-0.181088	0	0	-0.180625	0.198656	0.0750332	-0.254281	-0.317892	0.255858	0.499474	1.04807	0	0	0.118468	-0.430952	0.994833	0.457393	1.31588	0	0
0.22	1.75821	1.49858	-0.0610781	0.634602	0.832158	1.02879	0.183384	0.113861	-0.141971	0.282743	-0.166602	0	0	0.251106	-0.258516	-0.145485	1.22167	-0.175671	0	0	-0.187442	0.197824	0.0819899	-0.253303	-0.320324	0.25332	0.504159	1.05208	0	0	0.106583	-0.421867	0.999885	0.441436	1.30665	0	0
0.23	1.86851	1.49733	-0.179598	0.635362	0.842737	1.03075	0.140925	0.121712	-0.119604	0.231459	-0.21098	0	0	0.26294	-0.262914	-0.156609	1.21473	-0.170573	0	0	-0.199094	0.198565	0.0927182	-0.256993	-0.322462	0.242201	0.51395	1.05588	0	0	0.101697	-0.412316	1.02599	0.42391	1.27519	0	0
0.24	1.89415	1.49847	-0.213685	0.636082	0.853316	1.03196	0.115425	0.124713	-0.109551	0.206436	-0.207931	0	0	0.281768	-0.264444	-0.167951	1.20672	-0.166432	0	0	-0.204236	0.196701	0.0941652	-0.25221	-0.326967	0.250705	0.517649	1.04976	0	0	0.0822731	-0.403756	1.00278	0.412203	1.28601	0	0
0.25	1.92254	1.49981	-0.25023	0.636735	0.863876	1.03299	0.0912618	0.126646	-0.102119	0.185589	-0.210693	0	0	0.299416	-0.265269	-0.180146	1.19604	-0.162143	0	0	-0.208156	0.194274	0.0997345	-0.251511	-0.328667	0.247835	0.521108	1.0529	0	0	0.0704807	-0.396477	1.00832	0.400849	1.27328	0	0
0.26	2.04777	1.49738	-0.38323	0.6374	0.874472	1.03457	0.0465262	0.131758	-0.0770948	0.134063	-0.2531	0	0	0.306169	-0.268856	-0.196961	1.18099	-0.157096	0	0	-0.217289	0.193599	0.117215	-0.263128	-0.325993	0.217984	0.530695	1.07178	0	0	0.0789154	-0.390243	1.09541	0.385946	1.18268	0	0
0.27	2.11917	1.49637	-0.46247	0.638014	0.885112	1.03573	0.0133317	0.133977	-0.0604755	0.0998466	-0.268641	0	0	0.316024	-0.270146	-0.212701	1.16345	-0.149665	0	0	-0.225156	0.191381	0.120981	-0.261254	-0.329151	0.21962	0.534896	1.07153	0	0	0.0653277	-0.382623	1.08933	0.375815	1.17739	0	0
0.28	2.18987	1.4949	-0.540082	0.638614	0.895783	1.03674	-0.0222373	0.135761	-0.0416263	0.0621715	-0.284024	0	0	0.324271	-0.271224	-0.229873	1.14317	-0.140289	0	0	-0.232826	0.188895	0.12268	-0.258184	-0.332153	0.223113	0.537918	1.07051	0	0	0.0509451	-0.375285	1.07746	0.366351	1.17754	0	0
0.29	2.25902	1.49372	-0.615837	0.639144	0.906451	1.03755	-0.0574055	0.136006	-0.0236034	0.0263759	-0.291796	0	0	0.331066	-0.270502	-0.247346	1.11966	-0.130155	0	0	-0.240026	0.185621	0.123043	-0.254374	-0.335186	0.227918	0.54019	1.06868	0	0	0.0361991	-0.367787	1.06064	0.357585	1.18275	0	0
0.3	2.32114	1.49278	-0.684795	0.639603	0.917036	1.03813	-0.0886533	0.13491	-0.0077302	0	-0.293869	0	0	0.336856	-0.268096	-0.264556	1.09269	-0.119524	0	0	-0.246844	0.181763	0.12239	-0.248998	-0.338952	0.236622	0.541482	1.06469	0	0	0.0205471	-0.35898	1.03324	0.34789	1.20038	0	0
